<?xml version="1.0" encoding="utf-8"?>
<!-- Generator: Adobe Illustrator 24.3.0, SVG Export Plug-In . SVG Version: 6.00 Build 0)  -->
<svg version="1.0" id="katman_1" xmlns="http://www.w3.org/2000/svg" xmlns:xlink="http://www.w3.org/1999/xlink" x="0px" y="0px"
	 viewBox="0 0 841.89 595.28" style="enable-background:new 0 0 841.89 595.28;" xml:space="preserve">
<style type="text/css">
	.st0{fill:#FFFFFF;}
	.st1{fill:none;stroke:#BABBC4;stroke-width:3.1725;}
	.st2{fill:#45BFE5;}
	.st3{fill:#161625;}
</style>
<g>
	<g>
		<path class="st0" d="M194.69,371.57H99.85c-14.1,0-25.53-11.61-25.53-25.94v-96.38c0-14.33,11.43-25.95,25.53-25.95h94.84
			c14.11,0,25.53,11.62,25.53,25.95v96.38C220.22,359.95,208.8,371.58,194.69,371.57"/>
		<path class="st1" d="M194.69,371.57H99.85c-14.1,0-25.53-11.61-25.53-25.94v-96.38c0-14.33,11.43-25.95,25.53-25.95h94.84
			c14.11,0,25.53,11.62,25.53,25.95v96.38C220.22,359.95,208.8,371.58,194.69,371.57L194.69,371.57z"/>
		<path class="st0" d="M194.69,371.57H99.85c-14.1,0-25.53-11.61-25.53-25.94v-96.38c0-14.33,11.43-25.95,25.53-25.95h94.84
			c14.11,0,25.53,11.62,25.53,25.95v96.38C220.22,359.95,208.8,371.58,194.69,371.57"/>
		<path class="st1" d="M194.69,371.57H99.85c-14.1,0-25.53-11.61-25.53-25.94v-96.38c0-14.33,11.43-25.95,25.53-25.95h94.84
			c14.11,0,25.53,11.62,25.53,25.95v96.38C220.22,359.95,208.8,371.58,194.69,371.57L194.69,371.57z"/>
		<path class="st2" d="M100.93,350.83l45.7-24.56v-82.52l-45.7,30.81V350.83z"/>
		<path class="st3" d="M192.32,350.83l-45.7-24.56v-82.52l45.7,30.82V350.83z"/>
		<path class="st2" d="M258.76,244.54h18.78v27.85h11.15v16.32h-11.14v59.25h-18.78v-59.25h-9.64v-16.32h9.63V244.54z
			 M338.98,305.01c-0.29-6.97-4.79-13.8-15.5-13.8c-9.73,0-15.08,7.4-15.5,13.8H338.98z M356.45,327.91
			c-3.52,12.09-14.51,22.19-31.56,22.19c-19.02,0-35.79-13.8-35.79-37.41c0-22.33,16.34-36.85,34.09-36.85
			c21.42,0,34.24,13.8,34.24,36.27c0,2.71-0.29,5.55-0.29,5.84h-49.59c0.42,9.24,8.17,15.93,17.47,15.93
			c8.74,0,13.53-4.4,15.78-10.66L356.45,327.91z M377.44,324.92c0.43,5.55,4.51,10.67,12.69,10.67c6.19,0,9.15-3.27,9.15-6.97
			c0-3.13-2.11-5.69-7.46-6.83l-9.16-2.13c-13.39-2.99-19.45-11.1-19.45-20.91c0-12.52,11-22.91,25.93-22.91
			c19.73,0,26.34,12.66,27.19,20.2l-15.65,3.55c-0.56-4.12-3.52-9.38-11.41-9.38c-4.93,0-8.88,2.99-8.88,6.97
			c0,3.41,2.54,5.55,6.35,6.26l9.86,2.14c13.67,2.84,20.58,11.23,20.58,21.48c0,11.38-8.74,23.05-26.92,23.05
			c-20.85,0-28.04-13.66-28.89-21.62L377.44,324.92L377.44,324.92z M429.09,244.54h18.78v27.85h11.15v16.32h-11.15v59.25h-18.78
			v-59.25h-9.64v-16.32h9.64V244.54z M500.15,293.05c-9.44,0-17.33,6.98-17.33,19.78c0,12.66,7.89,19.91,17.33,19.91
			c9.58,0,17.19-7.11,17.19-19.91C517.34,300.03,509.72,293.05,500.15,293.05L500.15,293.05z M464.64,347.96V244.98h18.46v40.68
			c3.1-4.98,10.71-9.54,20.99-9.54c20.29,0,31.99,15.8,31.99,36.56c0,21.19-12.96,36.99-32.69,36.99c-9.58,0-16.9-4.27-20.57-10.25
			v8.53L464.64,347.96L464.64,347.96z M594.7,312.97c0-13.23-8.45-19.92-17.61-19.92c-9.16,0-17.61,6.69-17.61,19.92
			c0,13.09,8.46,19.92,17.61,19.92C586.24,332.89,594.7,326.2,594.7,312.97 M613.44,312.97c0,21.48-15.65,37.13-36.36,37.13
			c-20.72,0-36.35-15.65-36.35-37.13c0-21.62,15.63-37.12,36.35-37.12C597.79,275.84,613.44,291.35,613.44,312.97 M672.06,312.97
			c0-13.23-8.46-19.92-17.61-19.92s-17.61,6.69-17.61,19.92c0,13.09,8.46,19.92,17.61,19.92S672.06,326.2,672.06,312.97
			 M690.8,312.97c0,21.48-15.64,37.13-36.36,37.13c-20.72,0-36.36-15.65-36.36-37.13c0-21.62,15.64-37.12,36.36-37.12
			C675.16,275.84,690.8,291.35,690.8,312.97 M740.11,307.42l28.32,40.54h-22.97l-18.32-26.74l-7.75,8.25v18.5h-18.74V244.98h18.74
			v59.03l23.96-26.03h24.52L740.11,307.42z"/>
	</g>
</g>
</svg>
